# MagicaVoxel @ Ephtracy

# material
mtllib House.mtl
usemtl palette

# normals
vn -1 0 0
vn 1 0 0
vn 0 0 1
vn 0 0 -1
vn 0 -1 0
vn 0 1 0

# texcoords
vt 0.00195313 0.5
vt 0.0878906 0.5
vt 0.201172 0.5
vt 0.369141 0.5
vt 0.537109 0.5
vt 0.982422 0.5
vt 0.990234 0.5
vt 0.994141 0.5

# verts
v -11 8 -0
v -11 8 -2
v -11 8 -26
v -11 8 -28
v -11 9 -0
v -11 9 -1
v -11 9 -2
v -11 9 -3
v -11 9 -25
v -11 9 -26
v -11 9 -27
v -11 9 -28
v -11 10 -1
v -11 10 -2
v -11 10 -3
v -11 10 -4
v -11 10 -24
v -11 10 -25
v -11 10 -26
v -11 10 -27
v -11 11 -2
v -11 11 -3
v -11 11 -4
v -11 11 -5
v -11 11 -23
v -11 11 -24
v -11 11 -25
v -11 11 -26
v -11 12 -3
v -11 12 -4
v -11 12 -5
v -11 12 -6
v -11 12 -22
v -11 12 -23
v -11 12 -24
v -11 12 -25
v -11 13 -4
v -11 13 -5
v -11 13 -6
v -11 13 -7
v -11 13 -21
v -11 13 -22
v -11 13 -23
v -11 13 -24
v -11 14 -5
v -11 14 -6
v -11 14 -7
v -11 14 -21
v -11 14 -22
v -11 14 -23
v -11 15 -6
v -11 15 -7
v -11 15 -21
v -11 15 -22
v -11 16 -7
v -11 16 -21
v -9 0 -2
v -9 0 -26
v -9 1 -3
v -9 1 -25
v -9 8 -2
v -9 8 -26
v -9 9 -2
v -9 9 -3
v -9 9 -25
v -9 9 -26
v -9 10 -3
v -9 10 -4
v -9 10 -24
v -9 10 -25
v -9 11 -4
v -9 11 -5
v -9 11 -23
v -9 11 -24
v -9 12 -5
v -9 12 -6
v -9 12 -22
v -9 12 -23
v -9 13 -6
v -9 13 -7
v -9 13 -21
v -9 13 -22
v -9 14 -7
v -9 14 -21
v 21 2 -2
v 21 2 -3
v 21 7 -2
v 21 7 -3
v 22 1 -3
v 22 1 -25
v 22 8 -3
v 22 8 -25
v 22 9 -3
v 22 9 -25
v 22 10 -3
v 22 10 -4
v 22 10 -24
v 22 10 -25
v 22 11 -4
v 22 11 -5
v 22 11 -6
v 22 11 -23
v 22 11 -24
v 22 12 -6
v 22 12 -22
v 22 12 -23
v 22 13 -6
v 22 13 -7
v 22 13 -21
v 22 13 -22
v 22 14 -7
v 22 14 -21
v -8 1 -3
v -8 1 -25
v -8 8 -3
v -8 8 -25
v -8 9 -3
v -8 9 -25
v -8 10 -3
v -8 10 -4
v -8 10 -24
v -8 10 -25
v -8 11 -4
v -8 11 -5
v -8 11 -6
v -8 11 -23
v -8 11 -24
v -8 12 -6
v -8 12 -22
v -8 12 -23
v -8 13 -6
v -8 13 -7
v -8 13 -21
v -8 13 -22
v -8 14 -7
v -8 14 -21
v 8 2 -2
v 8 2 -3
v 8 7 -2
v 8 7 -3
v 23 0 -2
v 23 0 -26
v 23 1 -3
v 23 1 -25
v 23 8 -2
v 23 8 -26
v 23 9 -2
v 23 9 -3
v 23 9 -25
v 23 9 -26
v 23 10 -3
v 23 10 -4
v 23 10 -24
v 23 10 -25
v 23 11 -4
v 23 11 -5
v 23 11 -23
v 23 11 -24
v 23 12 -5
v 23 12 -6
v 23 12 -22
v 23 12 -23
v 23 13 -6
v 23 13 -7
v 23 13 -21
v 23 13 -22
v 23 14 -7
v 23 14 -21
v 25 8 -0
v 25 8 -2
v 25 8 -26
v 25 8 -28
v 25 9 -0
v 25 9 -1
v 25 9 -2
v 25 9 -3
v 25 9 -25
v 25 9 -26
v 25 9 -27
v 25 9 -28
v 25 10 -1
v 25 10 -2
v 25 10 -3
v 25 10 -4
v 25 10 -24
v 25 10 -25
v 25 10 -26
v 25 10 -27
v 25 11 -2
v 25 11 -3
v 25 11 -4
v 25 11 -5
v 25 11 -23
v 25 11 -24
v 25 11 -25
v 25 11 -26
v 25 12 -3
v 25 12 -4
v 25 12 -5
v 25 12 -6
v 25 12 -22
v 25 12 -23
v 25 12 -24
v 25 12 -25
v 25 13 -4
v 25 13 -5
v 25 13 -6
v 25 13 -7
v 25 13 -21
v 25 13 -22
v 25 13 -23
v 25 13 -24
v 25 14 -5
v 25 14 -6
v 25 14 -7
v 25 14 -21
v 25 14 -22
v 25 14 -23
v 25 15 -6
v 25 15 -7
v 25 15 -21
v 25 15 -22
v 25 16 -7
v 25 16 -21
v -11 8 -0
v -11 9 -0
v 25 8 -0
v 25 9 -0
v -11 9 -1
v -11 10 -1
v 25 9 -1
v 25 10 -1
v -11 10 -2
v -11 11 -2
v -9 0 -2
v -9 8 -2
v -8 1 -2
v -8 8 -2
v 1 1 -2
v 1 7 -2
v 2 0 -2
v 2 6 -2
v 5 2 -2
v 5 3 -2
v 6 0 -2
v 6 2 -2
v 6 3 -2
v 6 6 -2
v 7 1 -2
v 7 7 -2
v 8 2 -2
v 8 7 -2
v 21 2 -2
v 21 7 -2
v 22 1 -2
v 22 8 -2
v 23 0 -2
v 23 8 -2
v 25 10 -2
v 25 11 -2
v -11 11 -3
v -11 12 -3
v 25 11 -3
v 25 12 -3
v -11 12 -4
v -11 13 -4
v 25 12 -4
v 25 13 -4
v -11 13 -5
v -11 14 -5
v 25 13 -5
v 25 14 -5
v -11 14 -6
v -11 15 -6
v 25 14 -6
v 25 15 -6
v -11 15 -7
v -11 16 -7
v 25 15 -7
v 25 16 -7
v -11 13 -21
v -11 14 -21
v -9 13 -21
v -9 14 -21
v -8 13 -21
v -8 14 -21
v 22 13 -21
v 22 14 -21
v 23 13 -21
v 23 14 -21
v 25 13 -21
v 25 14 -21
v -11 12 -22
v -11 13 -22
v -9 12 -22
v -9 13 -22
v -8 12 -22
v -8 13 -22
v 22 12 -22
v 22 13 -22
v 23 12 -22
v 23 13 -22
v 25 12 -22
v 25 13 -22
v -11 11 -23
v -11 12 -23
v -9 11 -23
v -9 12 -23
v -8 11 -23
v -8 12 -23
v 22 11 -23
v 22 12 -23
v 23 11 -23
v 23 12 -23
v 25 11 -23
v 25 12 -23
v -11 10 -24
v -11 11 -24
v -9 10 -24
v -9 11 -24
v -8 10 -24
v -8 11 -24
v 22 10 -24
v 22 11 -24
v 23 10 -24
v 23 11 -24
v 25 10 -24
v 25 11 -24
v -11 9 -25
v -11 10 -25
v -9 9 -25
v -9 10 -25
v -8 1 -25
v -8 8 -25
v -8 9 -25
v -8 10 -25
v 22 1 -25
v 22 8 -25
v 22 9 -25
v 22 10 -25
v 23 9 -25
v 23 10 -25
v 25 9 -25
v 25 10 -25
v -11 8 -26
v -11 9 -26
v -9 8 -26
v -9 9 -26
v 23 8 -26
v 23 9 -26
v 25 8 -26
v 25 9 -26
v -11 8 -2
v -11 9 -2
v -9 8 -2
v -9 9 -2
v 23 8 -2
v 23 9 -2
v 25 8 -2
v 25 9 -2
v -11 9 -3
v -11 10 -3
v -9 9 -3
v -9 10 -3
v -8 1 -3
v -8 8 -3
v -8 9 -3
v -8 10 -3
v 1 1 -3
v 1 7 -3
v 2 1 -3
v 2 6 -3
v 5 2 -3
v 5 3 -3
v 6 1 -3
v 6 2 -3
v 6 3 -3
v 6 6 -3
v 7 1 -3
v 7 7 -3
v 8 2 -3
v 8 7 -3
v 21 2 -3
v 21 7 -3
v 22 1 -3
v 22 8 -3
v 22 9 -3
v 22 10 -3
v 23 9 -3
v 23 10 -3
v 25 9 -3
v 25 10 -3
v -11 10 -4
v -11 11 -4
v -9 10 -4
v -9 11 -4
v -8 10 -4
v -8 11 -4
v 22 10 -4
v 22 11 -4
v 23 10 -4
v 23 11 -4
v 25 10 -4
v 25 11 -4
v -11 11 -5
v -11 12 -5
v -9 11 -5
v -9 12 -5
v 23 11 -5
v 23 12 -5
v 25 11 -5
v 25 12 -5
v -11 12 -6
v -11 13 -6
v -9 12 -6
v -9 13 -6
v -8 11 -6
v -8 12 -6
v -8 13 -6
v 22 11 -6
v 22 12 -6
v 22 13 -6
v 23 12 -6
v 23 13 -6
v 25 12 -6
v 25 13 -6
v -11 13 -7
v -11 14 -7
v -9 13 -7
v -9 14 -7
v -8 13 -7
v -8 14 -7
v 22 13 -7
v 22 14 -7
v 23 13 -7
v 23 14 -7
v 25 13 -7
v 25 14 -7
v -11 15 -21
v -11 16 -21
v 25 15 -21
v 25 16 -21
v -11 14 -22
v -11 15 -22
v 25 14 -22
v 25 15 -22
v -11 13 -23
v -11 14 -23
v 25 13 -23
v 25 14 -23
v -11 12 -24
v -11 13 -24
v 25 12 -24
v 25 13 -24
v -11 11 -25
v -11 12 -25
v 25 11 -25
v 25 12 -25
v -11 10 -26
v -11 11 -26
v -9 0 -26
v -9 8 -26
v -8 1 -26
v -8 8 -26
v 22 1 -26
v 22 8 -26
v 23 0 -26
v 23 8 -26
v 25 10 -26
v 25 11 -26
v -11 9 -27
v -11 10 -27
v 25 9 -27
v 25 10 -27
v -11 8 -28
v -11 9 -28
v 25 8 -28
v 25 9 -28
v -9 0 -2
v 2 0 -2
v 6 0 -2
v 23 0 -2
v -8 0 -3
v 2 0 -3
v 6 0 -3
v 22 0 -3
v -8 0 -25
v 22 0 -25
v -9 0 -26
v 23 0 -26
v 8 7 -2
v 21 7 -2
v 8 7 -3
v 21 7 -3
v -11 8 -0
v 25 8 -0
v -8 8 -1
v 23 8 -1
v -11 8 -2
v -9 8 -2
v -8 8 -2
v 22 8 -2
v 23 8 -2
v 25 8 -2
v -11 8 -26
v -9 8 -26
v -8 8 -26
v 22 8 -26
v 23 8 -26
v 25 8 -26
v -8 8 -27
v 23 8 -27
v -11 8 -28
v 25 8 -28
v -11 9 -2
v -9 9 -2
v 23 9 -2
v 25 9 -2
v -11 9 -3
v -9 9 -3
v 23 9 -3
v 25 9 -3
v -11 9 -25
v -9 9 -25
v 23 9 -25
v 25 9 -25
v -11 9 -26
v -9 9 -26
v 23 9 -26
v 25 9 -26
v -11 10 -3
v -9 10 -3
v -8 10 -3
v 22 10 -3
v 23 10 -3
v 25 10 -3
v -11 10 -4
v -9 10 -4
v -8 10 -4
v 22 10 -4
v 23 10 -4
v 25 10 -4
v -11 10 -24
v -9 10 -24
v -8 10 -24
v 22 10 -24
v 23 10 -24
v 25 10 -24
v -11 10 -25
v -9 10 -25
v -8 10 -25
v 22 10 -25
v 23 10 -25
v 25 10 -25
v -11 11 -4
v -9 11 -4
v -8 11 -4
v 22 11 -4
v 23 11 -4
v 25 11 -4
v -11 11 -5
v -9 11 -5
v -8 11 -5
v 22 11 -5
v 23 11 -5
v 25 11 -5
v -8 11 -6
v 22 11 -6
v -11 11 -23
v -9 11 -23
v -8 11 -23
v 22 11 -23
v 23 11 -23
v 25 11 -23
v -11 11 -24
v -9 11 -24
v -8 11 -24
v 22 11 -24
v 23 11 -24
v 25 11 -24
v -11 12 -5
v -9 12 -5
v 23 12 -5
v 25 12 -5
v -11 12 -6
v -9 12 -6
v 23 12 -6
v 25 12 -6
v -11 12 -22
v -9 12 -22
v -8 12 -22
v 22 12 -22
v 23 12 -22
v 25 12 -22
v -11 12 -23
v -9 12 -23
v -8 12 -23
v 22 12 -23
v 23 12 -23
v 25 12 -23
v -11 13 -6
v -9 13 -6
v -8 13 -6
v 22 13 -6
v 23 13 -6
v 25 13 -6
v -11 13 -7
v -9 13 -7
v -8 13 -7
v 22 13 -7
v 23 13 -7
v 25 13 -7
v -11 13 -21
v -9 13 -21
v -8 13 -21
v 22 13 -21
v 23 13 -21
v 25 13 -21
v -11 13 -22
v -9 13 -22
v -8 13 -22
v 22 13 -22
v 23 13 -22
v 25 13 -22
v -11 14 -7
v -9 14 -7
v -8 14 -7
v 22 14 -7
v 23 14 -7
v 25 14 -7
v -11 14 -21
v -9 14 -21
v -8 14 -21
v 22 14 -21
v 23 14 -21
v 25 14 -21
v -8 1 -3
v 1 1 -3
v 2 1 -3
v 6 1 -3
v 7 1 -3
v 22 1 -3
v -8 1 -25
v 22 1 -25
v 8 2 -2
v 21 2 -2
v 8 2 -3
v 21 2 -3
v -11 9 -0
v 25 9 -0
v -11 9 -1
v 25 9 -1
v -11 9 -27
v 25 9 -27
v -11 9 -28
v 25 9 -28
v -11 10 -1
v 25 10 -1
v -11 10 -2
v 25 10 -2
v -11 10 -26
v 25 10 -26
v -11 10 -27
v 25 10 -27
v -11 11 -2
v 25 11 -2
v -11 11 -3
v 25 11 -3
v -11 11 -25
v 25 11 -25
v -11 11 -26
v 25 11 -26
v -11 12 -3
v 25 12 -3
v -11 12 -4
v 25 12 -4
v -11 12 -24
v 25 12 -24
v -11 12 -25
v 25 12 -25
v -11 13 -4
v 25 13 -4
v -11 13 -5
v 25 13 -5
v -11 13 -23
v 25 13 -23
v -11 13 -24
v 25 13 -24
v -11 14 -5
v 25 14 -5
v -11 14 -6
v 25 14 -6
v -11 14 -22
v 25 14 -22
v -11 14 -23
v 25 14 -23
v -11 15 -6
v 25 15 -6
v -11 15 -7
v 25 15 -7
v -11 15 -21
v 25 15 -21
v -11 15 -22
v 25 15 -22
v -11 16 -7
v 25 16 -7
v -11 16 -21
v 25 16 -21

# faces
f 5/2/1 2/2/1 1/2/1
f 6/2/1 2/2/1 5/2/1
f 7/2/1 2/2/1 6/2/1
f 10/2/1 4/2/1 3/2/1
f 11/2/1 4/2/1 10/2/1
f 12/2/1 4/2/1 11/2/1
f 13/2/1 8/2/1 7/2/1
f 13/2/1 7/2/1 6/2/1
f 14/2/1 8/2/1 13/2/1
f 15/2/1 8/2/1 14/2/1
f 18/2/1 11/2/1 10/2/1
f 18/2/1 10/2/1 9/2/1
f 19/2/1 11/2/1 18/2/1
f 20/2/1 11/2/1 19/2/1
f 21/2/1 16/2/1 15/2/1
f 21/2/1 15/2/1 14/2/1
f 22/2/1 16/2/1 21/2/1
f 23/2/1 16/2/1 22/2/1
f 26/2/1 19/2/1 18/2/1
f 26/2/1 18/2/1 17/2/1
f 27/2/1 19/2/1 26/2/1
f 28/2/1 19/2/1 27/2/1
f 29/2/1 24/2/1 23/2/1
f 29/2/1 23/2/1 22/2/1
f 30/2/1 24/2/1 29/2/1
f 31/2/1 24/2/1 30/2/1
f 34/2/1 27/2/1 26/2/1
f 34/2/1 26/2/1 25/2/1
f 35/2/1 27/2/1 34/2/1
f 36/2/1 27/2/1 35/2/1
f 37/2/1 32/2/1 31/2/1
f 37/2/1 31/2/1 30/2/1
f 38/2/1 32/2/1 37/2/1
f 39/2/1 32/2/1 38/2/1
f 42/2/1 35/2/1 34/2/1
f 42/2/1 34/2/1 33/2/1
f 43/2/1 35/2/1 42/2/1
f 44/2/1 35/2/1 43/2/1
f 45/2/1 40/2/1 39/2/1
f 45/2/1 39/2/1 38/2/1
f 46/2/1 40/2/1 45/2/1
f 47/2/1 40/2/1 46/2/1
f 48/2/1 43/2/1 42/2/1
f 48/2/1 42/2/1 41/2/1
f 49/2/1 43/2/1 48/2/1
f 50/2/1 43/2/1 49/2/1
f 51/2/1 47/2/1 46/2/1
f 51/2/1 49/2/1 48/2/1
f 51/2/1 48/2/1 47/2/1
f 52/2/1 49/2/1 51/2/1
f 53/2/1 49/2/1 52/2/1
f 54/2/1 49/2/1 53/2/1
f 55/2/1 53/2/1 52/2/1
f 56/2/1 53/2/1 55/2/1
f 59/7/1 58/7/1 57/7/1
f 60/7/1 58/7/1 59/7/1
f 61/7/1 59/7/1 57/7/1
f 62/7/1 58/7/1 60/7/1
f 63/7/1 59/7/1 61/7/1
f 64/1/1 60/1/1 59/1/1
f 64/7/1 59/7/1 63/7/1
f 65/7/1 62/7/1 60/7/1
f 65/1/1 60/1/1 64/1/1
f 66/7/1 62/7/1 65/7/1
f 67/3/1 65/3/1 64/3/1
f 68/3/1 65/3/1 67/3/1
f 69/3/1 65/3/1 68/3/1
f 70/3/1 65/3/1 69/3/1
f 71/3/1 69/3/1 68/3/1
f 72/3/1 69/3/1 71/3/1
f 73/3/1 69/3/1 72/3/1
f 74/3/1 69/3/1 73/3/1
f 75/3/1 73/3/1 72/3/1
f 76/3/1 73/3/1 75/3/1
f 77/3/1 73/3/1 76/3/1
f 78/3/1 73/3/1 77/3/1
f 79/3/1 77/3/1 76/3/1
f 80/3/1 77/3/1 79/3/1
f 81/3/1 77/3/1 80/3/1
f 82/3/1 77/3/1 81/3/1
f 83/3/1 81/3/1 80/3/1
f 84/3/1 81/3/1 83/3/1
f 87/1/1 86/1/1 85/1/1
f 88/1/1 86/1/1 87/1/1
f 91/1/1 90/1/1 89/1/1
f 92/1/1 90/1/1 91/1/1
f 93/1/1 92/1/1 91/1/1
f 94/1/1 92/1/1 93/1/1
f 95/3/1 94/3/1 93/3/1
f 96/3/1 94/3/1 95/3/1
f 97/3/1 94/3/1 96/3/1
f 98/3/1 94/3/1 97/3/1
f 99/3/1 97/3/1 96/3/1
f 100/3/1 97/3/1 99/3/1
f 101/3/1 97/3/1 100/3/1
f 102/3/1 97/3/1 101/3/1
f 103/3/1 97/3/1 102/3/1
f 104/3/1 102/3/1 101/3/1
f 105/3/1 102/3/1 104/3/1
f 106/3/1 102/3/1 105/3/1
f 107/3/1 105/3/1 104/3/1
f 108/3/1 105/3/1 107/3/1
f 109/3/1 105/3/1 108/3/1
f 110/3/1 105/3/1 109/3/1
f 111/3/1 109/3/1 108/3/1
f 112/3/1 109/3/1 111/3/1
f 113/1/2 114/1/2 115/1/2
f 115/1/2 114/1/2 116/1/2
f 115/1/2 116/1/2 117/1/2
f 117/1/2 116/1/2 118/1/2
f 117/3/2 118/3/2 119/3/2
f 119/3/2 118/3/2 120/3/2
f 120/3/2 118/3/2 121/3/2
f 121/3/2 118/3/2 122/3/2
f 120/3/2 121/3/2 123/3/2
f 123/3/2 121/3/2 124/3/2
f 124/3/2 121/3/2 125/3/2
f 125/3/2 121/3/2 126/3/2
f 126/3/2 121/3/2 127/3/2
f 125/3/2 126/3/2 128/3/2
f 128/3/2 126/3/2 129/3/2
f 129/3/2 126/3/2 130/3/2
f 128/3/2 129/3/2 131/3/2
f 131/3/2 129/3/2 132/3/2
f 132/3/2 129/3/2 133/3/2
f 133/3/2 129/3/2 134/3/2
f 132/3/2 133/3/2 135/3/2
f 135/3/2 133/3/2 136/3/2
f 137/1/2 138/1/2 139/1/2
f 139/1/2 138/1/2 140/1/2
f 141/7/2 142/7/2 143/7/2
f 143/7/2 142/7/2 144/7/2
f 141/7/2 143/7/2 145/7/2
f 144/7/2 142/7/2 146/7/2
f 145/7/2 143/7/2 147/7/2
f 143/1/2 144/1/2 148/1/2
f 147/7/2 143/7/2 148/7/2
f 144/7/2 146/7/2 149/7/2
f 148/1/2 144/1/2 149/1/2
f 149/7/2 146/7/2 150/7/2
f 148/3/2 149/3/2 151/3/2
f 151/3/2 149/3/2 152/3/2
f 152/3/2 149/3/2 153/3/2
f 153/3/2 149/3/2 154/3/2
f 152/3/2 153/3/2 155/3/2
f 155/3/2 153/3/2 156/3/2
f 156/3/2 153/3/2 157/3/2
f 157/3/2 153/3/2 158/3/2
f 156/3/2 157/3/2 159/3/2
f 159/3/2 157/3/2 160/3/2
f 160/3/2 157/3/2 161/3/2
f 161/3/2 157/3/2 162/3/2
f 160/3/2 161/3/2 163/3/2
f 163/3/2 161/3/2 164/3/2
f 164/3/2 161/3/2 165/3/2
f 165/3/2 161/3/2 166/3/2
f 164/3/2 165/3/2 167/3/2
f 167/3/2 165/3/2 168/3/2
f 169/2/2 170/2/2 173/2/2
f 173/2/2 170/2/2 174/2/2
f 174/2/2 170/2/2 175/2/2
f 171/2/2 172/2/2 178/2/2
f 178/2/2 172/2/2 179/2/2
f 179/2/2 172/2/2 180/2/2
f 175/2/2 176/2/2 181/2/2
f 174/2/2 175/2/2 181/2/2
f 181/2/2 176/2/2 182/2/2
f 182/2/2 176/2/2 183/2/2
f 178/2/2 179/2/2 186/2/2
f 177/2/2 178/2/2 186/2/2
f 186/2/2 179/2/2 187/2/2
f 187/2/2 179/2/2 188/2/2
f 183/2/2 184/2/2 189/2/2
f 182/2/2 183/2/2 189/2/2
f 189/2/2 184/2/2 190/2/2
f 190/2/2 184/2/2 191/2/2
f 186/2/2 187/2/2 194/2/2
f 185/2/2 186/2/2 194/2/2
f 194/2/2 187/2/2 195/2/2
f 195/2/2 187/2/2 196/2/2
f 191/2/2 192/2/2 197/2/2
f 190/2/2 191/2/2 197/2/2
f 197/2/2 192/2/2 198/2/2
f 198/2/2 192/2/2 199/2/2
f 194/2/2 195/2/2 202/2/2
f 193/2/2 194/2/2 202/2/2
f 202/2/2 195/2/2 203/2/2
f 203/2/2 195/2/2 204/2/2
f 199/2/2 200/2/2 205/2/2
f 198/2/2 199/2/2 205/2/2
f 205/2/2 200/2/2 206/2/2
f 206/2/2 200/2/2 207/2/2
f 202/2/2 203/2/2 210/2/2
f 201/2/2 202/2/2 210/2/2
f 210/2/2 203/2/2 211/2/2
f 211/2/2 203/2/2 212/2/2
f 207/2/2 208/2/2 213/2/2
f 206/2/2 207/2/2 213/2/2
f 213/2/2 208/2/2 214/2/2
f 214/2/2 208/2/2 215/2/2
f 210/2/2 211/2/2 216/2/2
f 209/2/2 210/2/2 216/2/2
f 216/2/2 211/2/2 217/2/2
f 217/2/2 211/2/2 218/2/2
f 214/2/2 215/2/2 219/2/2
f 216/2/2 217/2/2 219/2/2
f 215/2/2 216/2/2 219/2/2
f 219/2/2 217/2/2 220/2/2
f 220/2/2 217/2/2 221/2/2
f 221/2/2 217/2/2 222/2/2
f 220/2/2 221/2/2 223/2/2
f 223/2/2 221/2/2 224/2/2
f 227/2/3 226/2/3 225/2/3
f 228/2/3 226/2/3 227/2/3
f 231/2/3 230/2/3 229/2/3
f 232/2/3 230/2/3 231/2/3
f 237/7/3 236/7/3 235/7/3
f 238/7/3 236/7/3 237/7/3
f 239/7/3 237/7/3 235/7/3
f 239/1/3 238/1/3 237/1/3
f 240/1/3 238/1/3 239/1/3
f 241/7/3 239/7/3 235/7/3
f 241/7/3 240/7/3 239/7/3
f 242/7/3 240/7/3 241/7/3
f 243/5/3 242/5/3 241/5/3
f 244/5/3 242/5/3 243/5/3
f 245/5/3 243/5/3 241/5/3
f 246/8/3 244/8/3 243/8/3
f 246/5/3 243/5/3 245/5/3
f 247/5/3 242/5/3 244/5/3
f 247/8/3 244/8/3 246/8/3
f 248/7/3 240/7/3 242/7/3
f 248/5/3 242/5/3 247/5/3
f 249/7/3 247/7/3 246/7/3
f 249/7/3 246/7/3 245/7/3
f 249/7/3 248/7/3 247/7/3
f 250/1/3 238/1/3 240/1/3
f 250/7/3 248/7/3 249/7/3
f 250/7/3 240/7/3 248/7/3
f 251/1/3 250/1/3 249/1/3
f 252/1/3 238/1/3 250/1/3
f 252/1/3 250/1/3 251/1/3
f 253/1/3 251/1/3 249/1/3
f 254/1/3 238/1/3 252/1/3
f 255/7/3 249/7/3 245/7/3
f 255/1/3 254/1/3 253/1/3
f 255/1/3 253/1/3 249/1/3
f 256/1/3 238/1/3 254/1/3
f 256/1/3 254/1/3 255/1/3
f 257/7/3 255/7/3 245/7/3
f 257/7/3 256/7/3 255/7/3
f 258/7/3 256/7/3 257/7/3
f 259/2/3 234/2/3 233/2/3
f 260/2/3 234/2/3 259/2/3
f 263/2/3 262/2/3 261/2/3
f 264/2/3 262/2/3 263/2/3
f 267/2/3 266/2/3 265/2/3
f 268/2/3 266/2/3 267/2/3
f 271/2/3 270/2/3 269/2/3
f 272/2/3 270/2/3 271/2/3
f 275/2/3 274/2/3 273/2/3
f 276/2/3 274/2/3 275/2/3
f 279/2/3 278/2/3 277/2/3
f 280/2/3 278/2/3 279/2/3
f 283/2/3 282/2/3 281/2/3
f 284/2/3 282/2/3 283/2/3
f 287/4/3 286/4/3 285/4/3
f 288/4/3 286/4/3 287/4/3
f 291/2/3 290/2/3 289/2/3
f 292/2/3 290/2/3 291/2/3
f 295/2/3 294/2/3 293/2/3
f 296/2/3 294/2/3 295/2/3
f 299/4/3 298/4/3 297/4/3
f 300/4/3 298/4/3 299/4/3
f 303/2/3 302/2/3 301/2/3
f 304/2/3 302/2/3 303/2/3
f 307/2/3 306/2/3 305/2/3
f 308/2/3 306/2/3 307/2/3
f 311/4/3 310/4/3 309/4/3
f 312/4/3 310/4/3 311/4/3
f 315/2/3 314/2/3 313/2/3
f 316/2/3 314/2/3 315/2/3
f 319/2/3 318/2/3 317/2/3
f 320/2/3 318/2/3 319/2/3
f 323/4/3 322/4/3 321/4/3
f 324/4/3 322/4/3 323/4/3
f 327/2/3 326/2/3 325/2/3
f 328/2/3 326/2/3 327/2/3
f 331/2/3 330/2/3 329/2/3
f 332/2/3 330/2/3 331/2/3
f 337/1/3 334/1/3 333/1/3
f 338/4/3 336/4/3 335/4/3
f 338/1/3 334/1/3 337/1/3
f 338/4/3 335/4/3 334/4/3
f 339/4/3 336/4/3 338/4/3
f 340/4/3 336/4/3 339/4/3
f 343/2/3 342/2/3 341/2/3
f 344/2/3 342/2/3 343/2/3
f 347/2/3 346/2/3 345/2/3
f 348/2/3 346/2/3 347/2/3
f 351/2/3 350/2/3 349/2/3
f 352/2/3 350/2/3 351/2/3
f 353/2/4 354/2/4 355/2/4
f 355/2/4 354/2/4 356/2/4
f 357/2/4 358/2/4 359/2/4
f 359/2/4 358/2/4 360/2/4
f 361/2/4 362/2/4 363/2/4
f 363/2/4 362/2/4 364/2/4
f 365/1/4 366/1/4 369/1/4
f 369/1/4 366/1/4 370/1/4
f 369/7/4 370/7/4 371/7/4
f 371/7/4 370/7/4 372/7/4
f 371/5/4 372/5/4 373/5/4
f 373/5/4 372/5/4 374/5/4
f 371/5/4 373/5/4 375/5/4
f 373/8/4 374/8/4 376/8/4
f 375/5/4 373/5/4 376/5/4
f 374/5/4 372/5/4 377/5/4
f 376/8/4 374/8/4 377/8/4
f 372/7/4 370/7/4 378/7/4
f 377/5/4 372/5/4 378/5/4
f 376/7/4 377/7/4 379/7/4
f 375/7/4 376/7/4 379/7/4
f 377/7/4 378/7/4 379/7/4
f 370/1/4 366/1/4 380/1/4
f 379/7/4 378/7/4 380/7/4
f 378/7/4 370/7/4 380/7/4
f 379/1/4 380/1/4 381/1/4
f 380/1/4 366/1/4 382/1/4
f 381/1/4 380/1/4 382/1/4
f 379/1/4 381/1/4 383/1/4
f 382/1/4 366/1/4 384/1/4
f 379/1/4 383/1/4 385/1/4
f 383/1/4 384/1/4 385/1/4
f 367/4/4 368/4/4 386/4/4
f 385/1/4 384/1/4 386/1/4
f 366/4/4 367/4/4 386/4/4
f 384/1/4 366/1/4 386/1/4
f 386/4/4 368/4/4 387/4/4
f 387/4/4 368/4/4 388/4/4
f 389/2/4 390/2/4 391/2/4
f 391/2/4 390/2/4 392/2/4
f 393/2/4 394/2/4 395/2/4
f 395/2/4 394/2/4 396/2/4
f 397/4/4 398/4/4 399/4/4
f 399/4/4 398/4/4 400/4/4
f 401/2/4 402/2/4 403/2/4
f 403/2/4 402/2/4 404/2/4
f 405/2/4 406/2/4 407/2/4
f 407/2/4 406/2/4 408/2/4
f 409/2/4 410/2/4 411/2/4
f 411/2/4 410/2/4 412/2/4
f 413/2/4 414/2/4 415/2/4
f 415/2/4 414/2/4 416/2/4
f 417/3/4 418/3/4 420/3/4
f 418/4/4 419/4/4 421/4/4
f 420/3/4 418/3/4 421/3/4
f 421/4/4 419/4/4 422/4/4
f 423/2/4 424/2/4 425/2/4
f 425/2/4 424/2/4 426/2/4
f 427/2/4 428/2/4 429/2/4
f 429/2/4 428/2/4 430/2/4
f 431/2/4 432/2/4 433/2/4
f 433/2/4 432/2/4 434/2/4
f 435/2/4 436/2/4 437/2/4
f 437/2/4 436/2/4 438/2/4
f 439/2/4 440/2/4 441/2/4
f 441/2/4 440/2/4 442/2/4
f 443/2/4 444/2/4 445/2/4
f 445/2/4 444/2/4 446/2/4
f 447/2/4 448/2/4 449/2/4
f 449/2/4 448/2/4 450/2/4
f 451/2/4 452/2/4 453/2/4
f 453/2/4 452/2/4 454/2/4
f 455/2/4 456/2/4 457/2/4
f 457/2/4 456/2/4 458/2/4
f 461/7/4 462/7/4 463/7/4
f 463/7/4 462/7/4 464/7/4
f 461/7/4 463/7/4 465/7/4
f 463/1/4 464/1/4 465/1/4
f 465/1/4 464/1/4 466/1/4
f 461/7/4 465/7/4 467/7/4
f 465/7/4 466/7/4 467/7/4
f 467/7/4 466/7/4 468/7/4
f 459/2/4 460/2/4 469/2/4
f 469/2/4 460/2/4 470/2/4
f 471/2/4 472/2/4 473/2/4
f 473/2/4 472/2/4 474/2/4
f 475/2/4 476/2/4 477/2/4
f 477/2/4 476/2/4 478/2/4
f 483/7/5 480/7/5 479/7/5
f 484/5/5 481/5/5 480/5/5
f 484/7/5 480/7/5 483/7/5
f 485/7/5 482/7/5 481/7/5
f 485/5/5 481/5/5 484/5/5
f 486/7/5 482/7/5 485/7/5
f 487/6/5 484/6/5 483/6/5
f 487/7/5 483/7/5 479/7/5
f 487/6/5 486/6/5 485/6/5
f 487/6/5 485/6/5 484/6/5
f 488/7/5 482/7/5 486/7/5
f 488/6/5 486/6/5 487/6/5
f 489/7/5 487/7/5 479/7/5
f 489/7/5 488/7/5 487/7/5
f 490/7/5 482/7/5 488/7/5
f 490/7/5 488/7/5 489/7/5
f 493/1/5 492/1/5 491/1/5
f 494/1/5 492/1/5 493/1/5
f 497/2/5 496/2/5 495/2/5
f 498/2/5 496/2/5 497/2/5
f 499/2/5 497/2/5 495/2/5
f 500/2/5 497/2/5 499/2/5
f 501/4/5 498/4/5 497/4/5
f 501/2/5 497/2/5 500/2/5
f 502/4/5 498/4/5 501/4/5
f 503/2/5 496/2/5 498/2/5
f 503/4/5 498/4/5 502/4/5
f 504/2/5 496/2/5 503/2/5
f 511/2/5 506/2/5 505/2/5
f 511/2/5 507/2/5 506/2/5
f 511/4/5 509/4/5 508/4/5
f 511/4/5 508/4/5 507/4/5
f 512/2/5 510/2/5 509/2/5
f 512/4/5 509/4/5 511/4/5
f 513/2/5 511/2/5 505/2/5
f 513/2/5 512/2/5 511/2/5
f 514/2/5 510/2/5 512/2/5
f 514/2/5 512/2/5 513/2/5
f 519/2/5 516/2/5 515/2/5
f 520/2/5 516/2/5 519/2/5
f 521/2/5 518/2/5 517/2/5
f 522/2/5 518/2/5 521/2/5
f 527/2/5 524/2/5 523/2/5
f 528/2/5 524/2/5 527/2/5
f 529/2/5 526/2/5 525/2/5
f 530/2/5 526/2/5 529/2/5
f 537/2/5 532/2/5 531/2/5
f 538/2/5 532/2/5 537/2/5
f 539/4/5 534/4/5 533/4/5
f 540/4/5 534/4/5 539/4/5
f 541/2/5 536/2/5 535/2/5
f 542/2/5 536/2/5 541/2/5
f 549/2/5 544/2/5 543/2/5
f 550/2/5 544/2/5 549/2/5
f 551/4/5 546/4/5 545/4/5
f 552/4/5 546/4/5 551/4/5
f 553/2/5 548/2/5 547/2/5
f 554/2/5 548/2/5 553/2/5
f 561/2/5 556/2/5 555/2/5
f 562/2/5 556/2/5 561/2/5
f 563/4/5 558/4/5 557/4/5
f 564/4/5 558/4/5 563/4/5
f 565/2/5 560/2/5 559/2/5
f 566/2/5 560/2/5 565/2/5
f 567/3/5 564/3/5 563/3/5
f 568/3/5 564/3/5 567/3/5
f 575/2/5 570/2/5 569/2/5
f 576/2/5 570/2/5 575/2/5
f 577/4/5 572/4/5 571/4/5
f 578/4/5 572/4/5 577/4/5
f 579/2/5 574/2/5 573/2/5
f 580/2/5 574/2/5 579/2/5
f 585/2/5 582/2/5 581/2/5
f 586/2/5 582/2/5 585/2/5
f 587/2/5 584/2/5 583/2/5
f 588/2/5 584/2/5 587/2/5
f 595/2/5 590/2/5 589/2/5
f 596/2/5 590/2/5 595/2/5
f 597/4/5 592/4/5 591/4/5
f 598/4/5 592/4/5 597/4/5
f 599/2/5 594/2/5 593/2/5
f 600/2/5 594/2/5 599/2/5
f 607/2/5 602/2/5 601/2/5
f 608/2/5 602/2/5 607/2/5
f 609/2/5 604/2/5 603/2/5
f 610/2/5 604/2/5 609/2/5
f 611/2/5 606/2/5 605/2/5
f 612/2/5 606/2/5 611/2/5
f 619/2/5 614/2/5 613/2/5
f 620/2/5 614/2/5 619/2/5
f 621/4/5 616/4/5 615/4/5
f 622/4/5 616/4/5 621/4/5
f 623/2/5 618/2/5 617/2/5
f 624/2/5 618/2/5 623/2/5
f 631/2/5 626/2/5 625/2/5
f 632/2/5 626/2/5 631/2/5
f 633/2/5 628/2/5 627/2/5
f 634/2/5 628/2/5 633/2/5
f 635/2/5 630/2/5 629/2/5
f 636/2/5 630/2/5 635/2/5
f 637/6/6 638/6/6 643/6/6
f 641/6/6 642/6/6 643/6/6
f 640/6/6 641/6/6 643/6/6
f 639/6/6 640/6/6 643/6/6
f 638/6/6 639/6/6 643/6/6
f 643/6/6 642/6/6 644/6/6
f 645/1/6 646/1/6 647/1/6
f 647/1/6 646/1/6 648/1/6
f 649/2/6 650/2/6 651/2/6
f 651/2/6 650/2/6 652/2/6
f 653/2/6 654/2/6 655/2/6
f 655/2/6 654/2/6 656/2/6
f 657/2/6 658/2/6 659/2/6
f 659/2/6 658/2/6 660/2/6
f 661/2/6 662/2/6 663/2/6
f 663/2/6 662/2/6 664/2/6
f 665/2/6 666/2/6 667/2/6
f 667/2/6 666/2/6 668/2/6
f 669/2/6 670/2/6 671/2/6
f 671/2/6 670/2/6 672/2/6
f 673/2/6 674/2/6 675/2/6
f 675/2/6 674/2/6 676/2/6
f 677/2/6 678/2/6 679/2/6
f 679/2/6 678/2/6 680/2/6
f 681/2/6 682/2/6 683/2/6
f 683/2/6 682/2/6 684/2/6
f 685/2/6 686/2/6 687/2/6
f 687/2/6 686/2/6 688/2/6
f 689/2/6 690/2/6 691/2/6
f 691/2/6 690/2/6 692/2/6
f 693/2/6 694/2/6 695/2/6
f 695/2/6 694/2/6 696/2/6
f 697/2/6 698/2/6 699/2/6
f 699/2/6 698/2/6 700/2/6
f 701/2/6 702/2/6 703/2/6
f 703/2/6 702/2/6 704/2/6
f 705/2/6 706/2/6 707/2/6
f 707/2/6 706/2/6 708/2/6
