# MagicaVoxel @ Ephtracy

# material
mtllib Player.mtl
usemtl palette

# normals
vn -1 0 0
vn 1 0 0
vn 0 0 1
vn 0 0 -1
vn 0 -1 0
vn 0 1 0

# texcoords
vt 0.658203 0.5
vt 0.701172 0.5
vt 0.958984 0.5
vt 0.970703 0.5
vt 0.986328 0.5
vt 0.994141 0.5

# verts
v -5.5 3 2
v -5.5 3 -2
v -5.5 9 2
v -5.5 9 -2
v -5.5 12 4
v -5.5 12 -4
v -5.5 14 4
v -5.5 14 -4
v -4.5 0 4
v -4.5 0 -4
v -4.5 3 2
v -4.5 3 -2
v -4.5 4 4
v -4.5 4 2
v -4.5 4 -2
v -4.5 4 -4
v -4.5 9 2
v -4.5 9 -2
v -4.5 12 5
v -4.5 12 4
v -4.5 12 -4
v -4.5 12 -5
v -4.5 14 5
v -4.5 14 4
v -4.5 14 -4
v -4.5 14 -5
v -4.5 15 4
v -4.5 15 -4
v 0.5 0 4
v 0.5 0 -4
v 0.5 3 4
v 0.5 3 -4
v -0.5 0 4
v -0.5 0 -4
v -0.5 3 4
v -0.5 3 -4
v 4.5 0 4
v 4.5 0 -4
v 4.5 3 2
v 4.5 3 -2
v 4.5 4 4
v 4.5 4 2
v 4.5 4 -2
v 4.5 4 -4
v 4.5 9 2
v 4.5 9 -2
v 4.5 12 5
v 4.5 12 4
v 4.5 12 -4
v 4.5 12 -5
v 4.5 14 5
v 4.5 14 4
v 4.5 14 -4
v 4.5 14 -5
v 4.5 15 4
v 4.5 15 -4
v 5.5 3 2
v 5.5 3 -2
v 5.5 9 2
v 5.5 9 -2
v 5.5 12 4
v 5.5 12 -4
v 5.5 14 4
v 5.5 14 -4
v -4.5 12 5
v -4.5 14 5
v 4.5 12 5
v 4.5 14 5
v -5.5 12 4
v -5.5 14 4
v -4.5 0 4
v -4.5 4 4
v -4.5 12 4
v -4.5 14 4
v -4.5 15 4
v -2.5 9 4
v -2.5 11 4
v -1.5 9 4
v -1.5 11 4
v -0.5 0 4
v -0.5 3 4
v 0.5 0 4
v 0.5 3 4
v 1.5 9 4
v 1.5 11 4
v 2.5 9 4
v 2.5 11 4
v 4.5 0 4
v 4.5 4 4
v 4.5 12 4
v 4.5 14 4
v 4.5 15 4
v 5.5 12 4
v 5.5 14 4
v -5.5 3 2
v -5.5 9 2
v -4.5 3 2
v -4.5 4 2
v -4.5 9 2
v 4.5 3 2
v 4.5 4 2
v 4.5 9 2
v 5.5 3 2
v 5.5 9 2
v -5.5 3 -2
v -5.5 9 -2
v -4.5 3 -2
v -4.5 4 -2
v -4.5 9 -2
v 4.5 3 -2
v 4.5 4 -2
v 4.5 9 -2
v 5.5 3 -2
v 5.5 9 -2
v -5.5 12 -4
v -5.5 14 -4
v -4.5 0 -4
v -4.5 4 -4
v -4.5 12 -4
v -4.5 14 -4
v -4.5 15 -4
v -0.5 0 -4
v -0.5 3 -4
v 0.5 0 -4
v 0.5 3 -4
v 4.5 0 -4
v 4.5 4 -4
v 4.5 12 -4
v 4.5 14 -4
v 4.5 15 -4
v 5.5 12 -4
v 5.5 14 -4
v -4.5 12 -5
v -4.5 14 -5
v 4.5 12 -5
v 4.5 14 -5
v -4.5 0 4
v -0.5 0 4
v 0.5 0 4
v 4.5 0 4
v -4.5 0 -4
v -0.5 0 -4
v 0.5 0 -4
v 4.5 0 -4
v -0.5 3 4
v 0.5 3 4
v -5.5 3 2
v -4.5 3 2
v 4.5 3 2
v 5.5 3 2
v -5.5 3 -2
v -4.5 3 -2
v 4.5 3 -2
v 5.5 3 -2
v -0.5 3 -4
v 0.5 3 -4
v -4.5 12 5
v 4.5 12 5
v -5.5 12 4
v -4.5 12 4
v 4.5 12 4
v 5.5 12 4
v -5.5 12 -4
v -4.5 12 -4
v 4.5 12 -4
v 5.5 12 -4
v -4.5 12 -5
v 4.5 12 -5
v -5.5 9 2
v -4.5 9 2
v 4.5 9 2
v 5.5 9 2
v -5.5 9 -2
v -4.5 9 -2
v 4.5 9 -2
v 5.5 9 -2
v -4.5 14 5
v 4.5 14 5
v -5.5 14 4
v -4.5 14 4
v 4.5 14 4
v 5.5 14 4
v -5.5 14 -4
v -4.5 14 -4
v 4.5 14 -4
v 5.5 14 -4
v -4.5 14 -5
v 4.5 14 -5
v -4.5 15 4
v 4.5 15 4
v -4.5 15 -4
v 4.5 15 -4

# faces
f 3/3/1 2/3/1 1/3/1
f 4/3/1 2/3/1 3/3/1
f 7/1/1 6/1/1 5/1/1
f 8/1/1 6/1/1 7/1/1
f 11/5/1 10/5/1 9/5/1
f 12/5/1 10/5/1 11/5/1
f 13/5/1 11/5/1 9/5/1
f 14/5/1 11/5/1 13/5/1
f 15/5/1 10/5/1 12/5/1
f 16/5/1 10/5/1 15/5/1
f 17/3/1 14/3/1 13/3/1
f 18/3/1 16/3/1 15/3/1
f 20/3/1 17/3/1 13/3/1
f 20/3/1 18/3/1 17/3/1
f 21/3/1 16/3/1 18/3/1
f 21/3/1 18/3/1 20/3/1
f 23/1/1 20/1/1 19/1/1
f 24/1/1 20/1/1 23/1/1
f 25/1/1 22/1/1 21/1/1
f 26/1/1 22/1/1 25/1/1
f 27/1/1 25/1/1 24/1/1
f 28/1/1 25/1/1 27/1/1
f 31/5/1 30/5/1 29/5/1
f 32/5/1 30/5/1 31/5/1
f 33/5/2 34/5/2 35/5/2
f 35/5/2 34/5/2 36/5/2
f 37/5/2 38/5/2 39/5/2
f 39/5/2 38/5/2 40/5/2
f 37/5/2 39/5/2 41/5/2
f 41/5/2 39/5/2 42/5/2
f 40/5/2 38/5/2 43/5/2
f 43/5/2 38/5/2 44/5/2
f 41/3/2 42/3/2 45/3/2
f 43/3/2 44/3/2 46/3/2
f 41/3/2 45/3/2 48/3/2
f 45/3/2 46/3/2 48/3/2
f 46/3/2 44/3/2 49/3/2
f 48/3/2 46/3/2 49/3/2
f 47/1/2 48/1/2 51/1/2
f 51/1/2 48/1/2 52/1/2
f 49/1/2 50/1/2 53/1/2
f 53/1/2 50/1/2 54/1/2
f 52/1/2 53/1/2 55/1/2
f 55/1/2 53/1/2 56/1/2
f 57/3/2 58/3/2 59/3/2
f 59/3/2 58/3/2 60/3/2
f 61/1/2 62/1/2 63/1/2
f 63/1/2 62/1/2 64/1/2
f 67/1/3 66/1/3 65/1/3
f 68/1/3 66/1/3 67/1/3
f 73/1/3 70/1/3 69/1/3
f 74/1/3 70/1/3 73/1/3
f 76/3/3 73/3/3 72/3/3
f 77/3/3 73/3/3 76/3/3
f 78/3/3 76/3/3 72/3/3
f 78/6/3 77/6/3 76/6/3
f 79/3/3 73/3/3 77/3/3
f 79/6/3 77/6/3 78/6/3
f 80/5/3 72/5/3 71/5/3
f 81/5/3 72/5/3 80/5/3
f 83/5/3 72/5/3 81/5/3
f 84/3/3 78/3/3 72/3/3
f 84/3/3 79/3/3 78/3/3
f 85/3/3 73/3/3 79/3/3
f 85/3/3 79/3/3 84/3/3
f 86/3/3 84/3/3 72/3/3
f 86/6/3 85/6/3 84/6/3
f 87/3/3 73/3/3 85/3/3
f 87/6/3 85/6/3 86/6/3
f 88/5/3 83/5/3 82/5/3
f 89/3/3 86/3/3 72/3/3
f 89/5/3 83/5/3 88/5/3
f 89/5/3 72/5/3 83/5/3
f 89/3/3 87/3/3 86/3/3
f 90/3/3 73/3/3 87/3/3
f 90/3/3 87/3/3 89/3/3
f 91/1/3 75/1/3 74/1/3
f 92/1/3 75/1/3 91/1/3
f 93/1/3 91/1/3 90/1/3
f 94/1/3 91/1/3 93/1/3
f 97/3/3 96/3/3 95/3/3
f 98/3/3 96/3/3 97/3/3
f 99/3/3 96/3/3 98/3/3
f 103/3/3 101/3/3 100/3/3
f 103/3/3 102/3/3 101/3/3
f 104/3/3 102/3/3 103/3/3
f 105/3/4 106/3/4 107/3/4
f 107/3/4 106/3/4 108/3/4
f 108/3/4 106/3/4 109/3/4
f 110/3/4 111/3/4 113/3/4
f 111/3/4 112/3/4 113/3/4
f 113/3/4 112/3/4 114/3/4
f 115/1/4 116/1/4 119/1/4
f 119/1/4 116/1/4 120/1/4
f 117/5/4 118/5/4 122/5/4
f 122/5/4 118/5/4 123/5/4
f 123/5/4 118/5/4 125/5/4
f 124/5/4 125/5/4 126/5/4
f 118/3/4 119/3/4 127/3/4
f 126/5/4 125/5/4 127/5/4
f 125/5/4 118/5/4 127/5/4
f 127/3/4 119/3/4 128/3/4
f 120/1/4 121/1/4 129/1/4
f 129/1/4 121/1/4 130/1/4
f 128/1/4 129/1/4 131/1/4
f 131/1/4 129/1/4 132/1/4
f 133/1/4 134/1/4 135/1/4
f 135/1/4 134/1/4 136/1/4
f 141/5/5 138/5/5 137/5/5
f 142/5/5 138/5/5 141/5/5
f 143/5/5 140/5/5 139/5/5
f 144/5/5 140/5/5 143/5/5
f 151/3/5 148/3/5 147/3/5
f 152/3/5 148/3/5 151/3/5
f 153/3/5 150/3/5 149/3/5
f 154/3/5 150/3/5 153/3/5
f 155/5/5 146/5/5 145/5/5
f 156/5/5 146/5/5 155/5/5
f 160/1/5 158/1/5 157/1/5
f 161/1/5 158/1/5 160/1/5
f 163/1/5 160/1/5 159/1/5
f 164/1/5 160/1/5 163/1/5
f 165/1/5 162/1/5 161/1/5
f 166/1/5 162/1/5 165/1/5
f 167/1/5 165/1/5 164/1/5
f 168/1/5 165/1/5 167/1/5
f 169/3/6 170/3/6 173/3/6
f 173/3/6 170/3/6 174/3/6
f 171/3/6 172/3/6 175/3/6
f 175/3/6 172/3/6 176/3/6
f 177/1/6 178/1/6 180/1/6
f 180/1/6 178/1/6 181/1/6
f 179/1/6 180/1/6 183/1/6
f 183/1/6 180/1/6 184/1/6
f 181/1/6 182/1/6 185/1/6
f 185/1/6 182/1/6 186/1/6
f 184/1/6 185/1/6 187/1/6
f 187/1/6 185/1/6 188/1/6
f 189/1/6 190/1/6 191/1/6
f 191/1/6 190/1/6 192/1/6
