# MagicaVoxel @ Ephtracy

# material
mtllib Well.mtl
usemtl palette

# normals
vn -1 0 0
vn 1 0 0
vn 0 0 1
vn 0 0 -1
vn 0 -1 0
vn 0 1 0

# texcoords
vt 0.0644531 0.5
vt 0.923828 0.5
vt 0.978516 0.5

# verts
v -30 23 -0
v -30 23 -17
v -30 24 -0
v -30 24 -17
v -29 0 1
v -29 0 -18
v -29 1 1
v -29 1 -18
v -29 23 1
v -29 23 -0
v -29 23 -17
v -29 23 -18
v -29 24 1
v -29 24 -0
v -29 24 -17
v -29 24 -18
v -29 25 -0
v -29 25 -17
v -28 1 -0
v -28 1 -17
v -28 10 -0
v -28 10 -1
v -28 10 -16
v -28 10 -17
v -28 23 2
v -28 23 1
v -28 23 -0
v -28 23 -1
v -28 23 -16
v -28 23 -17
v -28 23 -18
v -28 23 -19
v -28 24 2
v -28 24 1
v -28 24 -0
v -28 24 -17
v -28 24 -18
v -28 24 -19
v -28 25 1
v -28 25 -0
v -28 25 -17
v -28 25 -18
v -28 26 -0
v -28 26 -17
v -12 7 -1
v -12 7 -16
v -12 10 -0
v -12 10 -1
v -12 10 -16
v -12 10 -17
v -12 23 -0
v -12 23 -1
v -12 23 -16
v -12 23 -17
v -27 7 -1
v -27 7 -16
v -27 10 -0
v -27 10 -1
v -27 10 -16
v -27 10 -17
v -27 23 -0
v -27 23 -1
v -27 23 -16
v -27 23 -17
v -11 1 -0
v -11 1 -17
v -11 10 -0
v -11 10 -1
v -11 10 -16
v -11 10 -17
v -11 23 2
v -11 23 1
v -11 23 -0
v -11 23 -1
v -11 23 -16
v -11 23 -17
v -11 23 -18
v -11 23 -19
v -11 24 2
v -11 24 1
v -11 24 -0
v -11 24 -17
v -11 24 -18
v -11 24 -19
v -11 25 1
v -11 25 -0
v -11 25 -17
v -11 25 -18
v -11 26 -0
v -11 26 -17
v -10 0 1
v -10 0 -18
v -10 1 1
v -10 1 -18
v -10 23 1
v -10 23 -0
v -10 23 -17
v -10 23 -18
v -10 24 1
v -10 24 -0
v -10 24 -17
v -10 24 -18
v -10 25 -0
v -10 25 -17
v -9 23 -0
v -9 23 -17
v -9 24 -0
v -9 24 -17
v -28 23 2
v -28 24 2
v -11 23 2
v -11 24 2
v -29 0 1
v -29 1 1
v -29 23 1
v -29 24 1
v -28 23 1
v -28 24 1
v -28 25 1
v -11 23 1
v -11 24 1
v -11 25 1
v -10 0 1
v -10 1 1
v -10 23 1
v -10 24 1
v -30 23 -0
v -30 24 -0
v -29 23 -0
v -29 24 -0
v -29 25 -0
v -28 1 -0
v -28 10 -0
v -28 23 -0
v -28 24 -0
v -28 25 -0
v -28 26 -0
v -27 10 -0
v -27 23 -0
v -12 10 -0
v -12 23 -0
v -11 1 -0
v -11 10 -0
v -11 23 -0
v -11 24 -0
v -11 25 -0
v -11 26 -0
v -10 23 -0
v -10 24 -0
v -10 25 -0
v -9 23 -0
v -9 24 -0
v -28 10 -16
v -28 23 -16
v -27 7 -16
v -27 10 -16
v -27 23 -16
v -12 7 -16
v -12 10 -16
v -12 23 -16
v -11 10 -16
v -11 23 -16
v -28 10 -1
v -28 23 -1
v -27 7 -1
v -27 10 -1
v -27 23 -1
v -12 7 -1
v -12 10 -1
v -12 23 -1
v -11 10 -1
v -11 23 -1
v -30 23 -17
v -30 24 -17
v -29 23 -17
v -29 24 -17
v -29 25 -17
v -28 1 -17
v -28 10 -17
v -28 23 -17
v -28 24 -17
v -28 25 -17
v -28 26 -17
v -27 10 -17
v -27 23 -17
v -12 10 -17
v -12 23 -17
v -11 1 -17
v -11 10 -17
v -11 23 -17
v -11 24 -17
v -11 25 -17
v -11 26 -17
v -10 23 -17
v -10 24 -17
v -10 25 -17
v -9 23 -17
v -9 24 -17
v -29 0 -18
v -29 1 -18
v -29 23 -18
v -29 24 -18
v -28 23 -18
v -28 24 -18
v -28 25 -18
v -11 23 -18
v -11 24 -18
v -11 25 -18
v -10 0 -18
v -10 1 -18
v -10 23 -18
v -10 24 -18
v -28 23 -19
v -28 24 -19
v -11 23 -19
v -11 24 -19
v -29 0 1
v -10 0 1
v -28 0 -0
v -11 0 -0
v -27 0 -1
v -12 0 -1
v -27 0 -16
v -12 0 -16
v -28 0 -17
v -11 0 -17
v -29 0 -18
v -10 0 -18
v -28 23 2
v -11 23 2
v -29 23 1
v -28 23 1
v -11 23 1
v -10 23 1
v -30 23 -0
v -29 23 -0
v -28 23 -0
v -27 23 -0
v -12 23 -0
v -11 23 -0
v -10 23 -0
v -9 23 -0
v -28 23 -1
v -27 23 -1
v -12 23 -1
v -11 23 -1
v -28 23 -16
v -27 23 -16
v -12 23 -16
v -11 23 -16
v -30 23 -17
v -29 23 -17
v -28 23 -17
v -27 23 -17
v -12 23 -17
v -11 23 -17
v -10 23 -17
v -9 23 -17
v -29 23 -18
v -28 23 -18
v -11 23 -18
v -10 23 -18
v -28 23 -19
v -11 23 -19
v -29 1 1
v -10 1 1
v -28 1 -0
v -11 1 -0
v -28 1 -17
v -11 1 -17
v -29 1 -18
v -10 1 -18
v -27 7 -1
v -12 7 -1
v -27 7 -16
v -12 7 -16
v -27 10 -0
v -12 10 -0
v -28 10 -1
v -27 10 -1
v -12 10 -1
v -11 10 -1
v -28 10 -16
v -27 10 -16
v -12 10 -16
v -11 10 -16
v -27 10 -17
v -12 10 -17
v -28 24 2
v -11 24 2
v -29 24 1
v -28 24 1
v -11 24 1
v -10 24 1
v -30 24 -0
v -29 24 -0
v -28 24 -0
v -11 24 -0
v -10 24 -0
v -9 24 -0
v -30 24 -17
v -29 24 -17
v -28 24 -17
v -11 24 -17
v -10 24 -17
v -9 24 -17
v -29 24 -18
v -28 24 -18
v -11 24 -18
v -10 24 -18
v -28 24 -19
v -11 24 -19
v -28 25 1
v -11 25 1
v -29 25 -0
v -28 25 -0
v -11 25 -0
v -10 25 -0
v -29 25 -17
v -28 25 -17
v -11 25 -17
v -10 25 -17
v -28 25 -18
v -11 25 -18
v -28 26 -0
v -11 26 -0
v -28 26 -17
v -11 26 -17

# faces
f 3/3/1 2/3/1 1/3/1
f 4/3/1 2/3/1 3/3/1
f 7/1/1 6/1/1 5/1/1
f 8/1/1 6/1/1 7/1/1
f 13/3/1 10/3/1 9/3/1
f 14/3/1 10/3/1 13/3/1
f 15/3/1 12/3/1 11/3/1
f 16/3/1 12/3/1 15/3/1
f 17/3/1 15/3/1 14/3/1
f 18/3/1 15/3/1 17/3/1
f 21/3/1 20/3/1 19/3/1
f 22/3/1 20/3/1 21/3/1
f 23/3/1 20/3/1 22/3/1
f 24/3/1 20/3/1 23/3/1
f 27/1/1 22/1/1 21/1/1
f 28/1/1 22/1/1 27/1/1
f 29/1/1 24/1/1 23/1/1
f 30/1/1 24/1/1 29/1/1
f 33/3/1 26/3/1 25/3/1
f 34/3/1 26/3/1 33/3/1
f 37/3/1 32/3/1 31/3/1
f 38/3/1 32/3/1 37/3/1
f 39/3/1 35/3/1 34/3/1
f 40/3/1 35/3/1 39/3/1
f 41/3/1 37/3/1 36/3/1
f 42/3/1 37/3/1 41/3/1
f 43/3/1 41/3/1 40/3/1
f 44/3/1 41/3/1 43/3/1
f 48/3/1 46/3/1 45/3/1
f 49/3/1 46/3/1 48/3/1
f 51/1/1 48/1/1 47/1/1
f 52/1/1 48/1/1 51/1/1
f 53/1/1 50/1/1 49/1/1
f 54/1/1 50/1/1 53/1/1
f 55/3/2 56/3/2 58/3/2
f 58/3/2 56/3/2 59/3/2
f 57/1/2 58/1/2 61/1/2
f 61/1/2 58/1/2 62/1/2
f 59/1/2 60/1/2 63/1/2
f 63/1/2 60/1/2 64/1/2
f 65/3/2 66/3/2 67/3/2
f 67/3/2 66/3/2 68/3/2
f 68/3/2 66/3/2 69/3/2
f 69/3/2 66/3/2 70/3/2
f 67/1/2 68/1/2 73/1/2
f 73/1/2 68/1/2 74/1/2
f 69/1/2 70/1/2 75/1/2
f 75/1/2 70/1/2 76/1/2
f 71/3/2 72/3/2 79/3/2
f 79/3/2 72/3/2 80/3/2
f 77/3/2 78/3/2 83/3/2
f 83/3/2 78/3/2 84/3/2
f 80/3/2 81/3/2 85/3/2
f 85/3/2 81/3/2 86/3/2
f 82/3/2 83/3/2 87/3/2
f 87/3/2 83/3/2 88/3/2
f 86/3/2 87/3/2 89/3/2
f 89/3/2 87/3/2 90/3/2
f 91/1/2 92/1/2 93/1/2
f 93/1/2 92/1/2 94/1/2
f 95/3/2 96/3/2 99/3/2
f 99/3/2 96/3/2 100/3/2
f 97/3/2 98/3/2 101/3/2
f 101/3/2 98/3/2 102/3/2
f 100/3/2 101/3/2 103/3/2
f 103/3/2 101/3/2 104/3/2
f 105/3/2 106/3/2 107/3/2
f 107/3/2 106/3/2 108/3/2
f 111/3/3 110/3/3 109/3/3
f 112/3/3 110/3/3 111/3/3
f 117/3/3 116/3/3 115/3/3
f 118/3/3 116/3/3 117/3/3
f 121/3/3 119/3/3 118/3/3
f 122/3/3 119/3/3 121/3/3
f 123/1/3 114/1/3 113/1/3
f 124/1/3 114/1/3 123/1/3
f 125/3/3 121/3/3 120/3/3
f 126/3/3 121/3/3 125/3/3
f 129/3/3 128/3/3 127/3/3
f 130/3/3 128/3/3 129/3/3
f 135/3/3 131/3/3 130/3/3
f 136/3/3 131/3/3 135/3/3
f 138/1/3 134/1/3 133/1/3
f 138/3/3 133/3/3 132/3/3
f 139/1/3 134/1/3 138/1/3
f 140/3/3 138/3/3 132/3/3
f 142/3/3 140/3/3 132/3/3
f 143/1/3 141/1/3 140/1/3
f 143/3/3 140/3/3 142/3/3
f 144/1/3 141/1/3 143/1/3
f 146/3/3 137/3/3 136/3/3
f 147/3/3 137/3/3 146/3/3
f 149/3/3 146/3/3 145/3/3
f 150/3/3 146/3/3 149/3/3
f 151/3/3 149/3/3 148/3/3
f 152/3/3 149/3/3 151/3/3
f 156/1/3 154/1/3 153/1/3
f 157/1/3 154/1/3 156/1/3
f 158/3/3 156/3/3 155/3/3
f 159/3/3 156/3/3 158/3/3
f 161/1/3 160/1/3 159/1/3
f 162/1/3 160/1/3 161/1/3
f 163/1/4 164/1/4 166/1/4
f 166/1/4 164/1/4 167/1/4
f 165/3/4 166/3/4 168/3/4
f 168/3/4 166/3/4 169/3/4
f 169/1/4 170/1/4 171/1/4
f 171/1/4 170/1/4 172/1/4
f 173/3/4 174/3/4 175/3/4
f 175/3/4 174/3/4 176/3/4
f 176/3/4 177/3/4 181/3/4
f 181/3/4 177/3/4 182/3/4
f 179/1/4 180/1/4 184/1/4
f 178/3/4 179/3/4 184/3/4
f 184/1/4 180/1/4 185/1/4
f 178/3/4 184/3/4 186/3/4
f 178/3/4 186/3/4 188/3/4
f 186/1/4 187/1/4 189/1/4
f 188/3/4 186/3/4 189/3/4
f 189/1/4 187/1/4 190/1/4
f 182/3/4 183/3/4 192/3/4
f 192/3/4 183/3/4 193/3/4
f 191/3/4 192/3/4 195/3/4
f 195/3/4 192/3/4 196/3/4
f 194/3/4 195/3/4 197/3/4
f 197/3/4 195/3/4 198/3/4
f 201/3/4 202/3/4 203/3/4
f 203/3/4 202/3/4 204/3/4
f 204/3/4 205/3/4 207/3/4
f 207/3/4 205/3/4 208/3/4
f 199/1/4 200/1/4 209/1/4
f 209/1/4 200/1/4 210/1/4
f 206/3/4 207/3/4 211/3/4
f 211/3/4 207/3/4 212/3/4
f 213/3/4 214/3/4 215/3/4
f 215/3/4 214/3/4 216/3/4
f 219/1/5 218/1/5 217/1/5
f 220/1/5 218/1/5 219/1/5
f 221/3/5 220/3/5 219/3/5
f 222/3/5 220/3/5 221/3/5
f 223/3/5 221/3/5 219/3/5
f 223/2/5 222/2/5 221/2/5
f 224/3/5 220/3/5 222/3/5
f 224/2/5 222/2/5 223/2/5
f 225/1/5 219/1/5 217/1/5
f 225/3/5 223/3/5 219/3/5
f 225/3/5 224/3/5 223/3/5
f 226/3/5 220/3/5 224/3/5
f 226/3/5 224/3/5 225/3/5
f 226/1/5 218/1/5 220/1/5
f 227/1/5 225/1/5 217/1/5
f 227/1/5 226/1/5 225/1/5
f 228/1/5 218/1/5 226/1/5
f 228/1/5 226/1/5 227/1/5
f 232/3/5 230/3/5 229/3/5
f 233/3/5 230/3/5 232/3/5
f 236/3/5 232/3/5 231/3/5
f 236/3/5 234/3/5 233/3/5
f 236/3/5 233/3/5 232/3/5
f 237/3/5 234/3/5 236/3/5
f 238/3/5 234/3/5 237/3/5
f 239/3/5 234/3/5 238/3/5
f 240/3/5 234/3/5 239/3/5
f 241/3/5 234/3/5 240/3/5
f 243/3/5 236/3/5 235/3/5
f 243/3/5 237/3/5 236/3/5
f 244/3/5 239/3/5 238/3/5
f 245/3/5 239/3/5 244/3/5
f 246/3/5 242/3/5 241/3/5
f 246/3/5 241/3/5 240/3/5
f 247/3/5 245/3/5 244/3/5
f 247/3/5 246/3/5 245/3/5
f 247/3/5 244/3/5 243/3/5
f 247/3/5 243/3/5 235/3/5
f 248/3/5 246/3/5 247/3/5
f 249/3/5 246/3/5 248/3/5
f 250/3/5 242/3/5 246/3/5
f 250/3/5 246/3/5 249/3/5
f 251/3/5 247/3/5 235/3/5
f 252/3/5 247/3/5 251/3/5
f 253/3/5 247/3/5 252/3/5
f 254/3/5 249/3/5 248/3/5
f 255/3/5 249/3/5 254/3/5
f 256/3/5 242/3/5 250/3/5
f 257/3/5 242/3/5 256/3/5
f 258/3/5 242/3/5 257/3/5
f 259/3/5 253/3/5 252/3/5
f 259/3/5 255/3/5 254/3/5
f 259/3/5 257/3/5 256/3/5
f 259/3/5 256/3/5 255/3/5
f 259/3/5 254/3/5 253/3/5
f 260/3/5 257/3/5 259/3/5
f 261/3/5 257/3/5 260/3/5
f 262/3/5 257/3/5 261/3/5
f 263/3/5 261/3/5 260/3/5
f 264/3/5 261/3/5 263/3/5
f 265/1/6 266/1/6 267/1/6
f 267/1/6 266/1/6 268/1/6
f 265/1/6 267/1/6 269/1/6
f 268/1/6 266/1/6 270/1/6
f 265/1/6 269/1/6 271/1/6
f 269/1/6 270/1/6 271/1/6
f 270/1/6 266/1/6 272/1/6
f 271/1/6 270/1/6 272/1/6
f 273/2/6 274/2/6 275/2/6
f 275/2/6 274/2/6 276/2/6
f 277/3/6 278/3/6 280/3/6
f 280/3/6 278/3/6 281/3/6
f 279/3/6 280/3/6 283/3/6
f 283/3/6 280/3/6 284/3/6
f 281/3/6 282/3/6 285/3/6
f 285/3/6 282/3/6 286/3/6
f 284/3/6 285/3/6 287/3/6
f 287/3/6 285/3/6 288/3/6
f 289/3/6 290/3/6 292/3/6
f 292/3/6 290/3/6 293/3/6
f 291/3/6 292/3/6 296/3/6
f 296/3/6 292/3/6 297/3/6
f 293/3/6 294/3/6 298/3/6
f 298/3/6 294/3/6 299/3/6
f 295/3/6 296/3/6 301/3/6
f 301/3/6 296/3/6 302/3/6
f 299/3/6 300/3/6 305/3/6
f 305/3/6 300/3/6 306/3/6
f 302/3/6 303/3/6 307/3/6
f 307/3/6 303/3/6 308/3/6
f 304/3/6 305/3/6 309/3/6
f 309/3/6 305/3/6 310/3/6
f 308/3/6 309/3/6 311/3/6
f 311/3/6 309/3/6 312/3/6
f 313/3/6 314/3/6 316/3/6
f 316/3/6 314/3/6 317/3/6
f 315/3/6 316/3/6 319/3/6
f 319/3/6 316/3/6 320/3/6
f 317/3/6 318/3/6 321/3/6
f 321/3/6 318/3/6 322/3/6
f 320/3/6 321/3/6 323/3/6
f 323/3/6 321/3/6 324/3/6
f 325/3/6 326/3/6 327/3/6
f 327/3/6 326/3/6 328/3/6
